<svg xmlns="http://www.w3.org/2000/svg" width="542" height="221.9" viewBox="0 0 542 221.9"><path fill="#FFF" d="M295.4.6l-.8.1-.8-.1-.9.1-.8.1-.9-.1-.8.1-.9.1-.8.1-.9-.2-.8.2-.9.1h-.8l-.9-.1-.8.1H281.9l-.1.9.1.8.1.9H283.7l.8-.1.9.1.8-.1.8-.1h1.8l-.1.7.1.6.1.8-.2.8v.8l.1.8.1.7.1.8-.1.8.2.8V14.2l.1.8-.1.7v.8l.1.8-.1.8.1.7-.1.8v.8l.1.8v.8l-.1.7.1.8-.2.8v1.5l.1.8-.2.8v.8l-.3.7-.1.9.9.2.8.2.9.3.1-.8v-.8l.2-.8.1-.8.1-.8.2-.8-.1-.9.2-.8v-.8l-.1-.8v-1.6l-.1-.8v-.8l.2-.8-.2-.8.1-.8-.1-.8-.1-.9V12.7l.1-.8-.1-.8.1-.8-.2-.8v-.8l.1-.9-.1-.7v-.8l-.1-.8v-.7l-.1-.7v-.7h2.5l.9-.1.8-.1.9.1.8-.1.9-.1.9.1-.2-.9.2-.9-.2-.8-.8.1-.9-.1h-.8M203.1 27.7l-.1-.8.2-.8-.1-.8-.1-.9v-1.6l.2-.8-.1-.8-.1-.8.2-.8-.1-.9v-.8l.1-.8V14.7l-.2-.8.1-.8v-.9l-.1-.8.1-.8-.1-.8.1-.8V7.4l-.1-.8.1-.8-.1-.9.1-.8V2.5l.1-.9-.8.1-.8-.1-.7.2-.9-.2.1.9v.8l-.1.8.2.8-.1.8-.1.8.2.8-.1.8.1.8-.1.8v.8l-.1.8.1.8v.8l-.1.8.1.8-.1.8.1.8-.1.8v1.6l.1.8v2.3l-.2.8.1.8v.8l.1.8v.8l.1.8v3.2l-.1.8.6.7.8.6h.8l.8-.1.8.1.8-.1.8.2h.8l.8-.1h.8l.8-.1h.8l.7.2.8-.2.1-.7v-.8l-.1-.8v-.8l.1-.8h-1.6l-.8-.1-.8.1h-.8l-.8.1-.8-.2-.8.2-.8-.1M414.1 15.7H385.1v-1h6.4l3.2-.1 3.3.1h16.1M416.3 14.2l.1-.1h-.2M415.9 13.7h-.1l.5.3M416 13.6l-.2-.2.2.2zM406 12.7z"/><path fill="#FFF" d="M403.5 13.4v.2l1.4-.2v.2l3.6-.4v.1l.2-.2v.1l.9.1V13l3-.3.1.2 2.5-.2h-.2l-.9.7v-.1h1l-.3-.7h.2v1.1h-.9v-.2l1.2-.4-.6-.6h-.4l.1-.1-.2.1v-.1l-1.1.2-.5-.3-.3.2-4.1.2H406l-.9.1-.3.3-2.7-.3h-2.8l-2.9-.3-3 .4.1-.1h-1.7l-4.2.4H386l-.9-.1V14.3l.9.1 3.6-.3.2.2 4.1.2 4.3-.3 2.9-.1 2.5.4 2.5-.6 4.6.2 2.3.3v-.1h.8l.4-.3v-.1l.2.1.1-.1.4.5v.4l.3-.2v-.8l-.1.2v-.3l-.4-.5-.1.1H414l-1.6.1-.3.3-.7-.4v-.1l-.6-.2-.6.4-.1-.2-1.4-.2-1.2.3h-1v-.2l-1.2.4-.5-.4-1.2.3-.4-.3-3.7-.1v.1l-.6.7h.1l-.7-.2.1-.1-.8-.1h.1-.2l.1-.1-3 .1-2.9.2.1-.1-.4.2v-.1l-1.5.1.1-.2-.8.2v-.3l-2.5.2.5.5.1-.4-.2-.4-.4.4 2.2-.2v.1h3.4l1.3-.1v.1l2.5-.1v.2l.5-.4.1.1 1.7.1v.2h.5v-.2h1.8l-.1.1 1.3-.1-.1.1.2-.2v.3M408.6 13.2zM414.6 13.2zM158.1 15.7h-6.5l-3.2-.1-3.2.1H129.1v-1h3.2l3.2-.1 3.2.1h19.4M159.4 14.2v-.1h-.2M159 13.7h-.1l.4.3M159 13.6l-.2-.2.2.2zM149 12.7z"/><path fill="#FFF" d="M146.6 13.5l-.1.1 1.5-.1v.1l3.6-.4v.1l.1-.2v.1l.9.1.1-.3 3-.3v.2l2.6-.2h.8v.7l-.8-.9-.1-.1.9 1-.1-.1h.1V13l-1-.6-.7.1.1-.2-.2.2v-.2l-1.2.3-.5-.3-.3.2-4.1.1-2.2.1-.9.1-.2.2-2.8-.2-2.7-.1-3-.2-2.9.4v-.1h-1.7l-4.1.4h-1.2l-.4-.1V14.3h.4l3.4-.1.1.2h4l4.3-.3h2.9l2.4.3 2.5-.4 4.6.1 2.3.3v-.1h.8l.5-.3-.1-.1.2.2.2-.2.4.5-.1.4.3-.2v-.8.2l-.1-.3-.5-.4h-.3v-.1l-.3.1-1.6.1-.3.3-.7-.4v-.1l-.5-.1-.7.3v-.2l-1.5-.2-1.2.4-1-.2-1.2.3-.4-.5-1.3.4-.3-.3h-3.8l-.5.7-.6-.2v-.1l-.7-.1-.2.1.1-.3-2.9.2-3 .2h.1l-.4.1v-.1l-1.4.1v-.3l-.7.3v-.2l-2.6.1.6.6v-.5l-.2-.3-.4.4 2.2-.3 3.4.1 1.3-.2v.2l2.5-.1v.2l.5-.4.1.1 1.7-.1v.1l.6-.1-.1.2 1.8-.1v.2l1.2-.1.2-.1v.2M151.7 13.2zM157.6 13.2zM59.067 118.694l.493-.496.497.494-.494.496zM234.7 113.3v.1h.1l.4.2.4-.2v-.8l-.8-.1-.1.8M469.1 120.9v4.6l.2.4.2 1.8-.2.2-.2-.8V121.4M469.3 107.3v2.2l.1.2v.9l.1 1.1-.2.3-.2 1.2v-1.5h.3l-.2 1.3-.1.2v-7.5l.2-1.6.1-.4h.1l-.1 1.2.1.5-.1.6-.1.8"/><path fill="#FFF" d="M217.7 57.9l-.6.4v.5l-.1 4.5.4 1.2v3.2l-.1.1-.2.9.1 2v1.5l-.1 3.3-.1 3.5-.1 3.4.2 3.3.7-.1.4.1-.3.9-.3.5.2.2.1 3 .4 3-.4 1 .1.4-.1.5.2 3.2.3 3.2.1 3.2-.4 3.2v3.2l-.5 3.2v.3l.7 1.5.3.7h.4v.1h-.2l-.2 1.5-.3 1.2v.5l-.4.8-1 .4h.1v4.1h-.2.1l.9 2.2-.1-.2.2.3-.1 4.3.2.3.4.1 2-.2.6.4.1-.1.4-.4h4.7l.5-.6-.2-3-.1-3v-3l.1-3.6-.2-3.6.2-.4.2-.2-.3-1.2.2-.2-.2-4.5-.1-2.4.5-.4-.2-.3.2-1.9-.1-1.5.2-.2-.2-.2v-7.2l-.1-3.7-.1-2.4.5-.2.7-.1.1.6 1.4 3.6L231 97v.4l1.5 3.2 1.1 3.4 1.1 3.4 1 3.2 1.2 3.1 1.3 3.5.7 2.3-.1.6 1.2 2.6.7 2.7.2.4.7 2.4.5 1.4.7 1.6.5.2.6.2.7.1.4-.4.2.4.7 1v-.1l-.1.6.3.2h-.1l1.1.2.3-.2h.4l3.4.2v-.2l.7-.5-.2-.3-.5-2.5v-.6l-.3-.9.2-.4-.9-1.8.1-.3v-.2l-.1-.4-.3-.4-.5-1.4.1-.2-.1-.2-.7-2.9-1.2-2.8-.9-2.3.1-.4-.3-.3-1-3.1-.8-2.1.1-.2-.4-.3-.3-.3.3-.5-1.8-3.9-.8-2.6.1-.3-.3-.4-1.5-3.8-1.1-2.6.2-.3L238 91l-1.4-3.1 2.9-.2h1.3l-.4-.5 3-1.9 2.1-2.9 1.5-3.3.8-3.5.1-3.6-.1-4.5-.2-3.4-1.1-3.3-1.8-2.9-2.9-1.9-3.4-.6h.5l-.4-.3-.2-.2-1.2-.3-.8-.6-.5.3h-1.5l-.6-.1h-.8v-.1l-3.6.2h-3.6l-.7-.2-.3.1-.6.1-.9.2-.8-.6-.1-.1-1-.2h-.2l-1 .3-.6-.1-.9.2-.2-.1-.6.6-.1 1.1-.1.5.3.7-.4.8.2.3zm4.7.9zm-2-1.7l1.9.3h-1.9v-.3zM240.5 83l2-2 .4-.5.2-.6-1.3 2.2-1.7 1.9.4-1zm2.3-10.6l-.4.2.2.2-.1.1v.8l-.1 1.3-.1.3-.2.3-.5.3.9.3-.3.2-.1.4.1.1-.1.2-.7.7-.4.4-.3.4.2.1-.5.5-.4.4-.3-.1-.1.2-.3-.1-.3-.6-.3.3-.5.2-.6-.1-.1.2-.1-.3h-.6l-3.9-.1-.8.2-.2.8h-.3V80l-.4-.2h-.4l-.1-.2-.3.1-3.7.4-.1-.3-.2-.4v-1.2l.1-.1.1-.1-.3-.6-.3-.7h-.1l.4-.2.2-3.2-.1-.4-.3-1.3-.3-1.2.3-.2-.2-.3-.2-2.2.3-1.5-.1-.7.1-.2.7.2 1.3.2h.6l.4-.1v-.1l.2-.5.9.2.6-.2.3.3-.2.2.2-.4.2-.3-.2.1-.1.5.6-.3.4 1 1.1-.2.5-.3 1.2-.1H236.4l.2-.1.2.1.6-.1.6-.2.6.2h.2l1.2-.1.5-.3 1.8 2.8-.2 4v.1l.7.5zM234 57.9l.2-.4h.2l.5-.5v-.4l-.1.1.7.5.1.3.2.4H234zm3.7.9zm-1.2.1zm3 26.2V85v.1zm9.1-13zM62.9 55.9l-2.2-.3-1.4.2 1.2.2"/><path fill="#FFF" d="M132.3 153.6l-.6-3.4.1-3.4-.9-3.3-.3-3.4-1.5-3.1-.6-3.4-1.2-3.2-1.4-3.1-1.7-3-1.6-3.1-2.4-2.5-1.8-3-2-2.8-2.5-2.4-1.9-2.4-2.3-2-2.3-2-2.5-1.8-2.4-1.9-3-1.1-.2-.5-3.7-1.3-2-1.2.2-.3.2-.3.4-.2 2.2-2.5v-.8l.2-.6.4-.8.5-.1.5-1.5 1.3-4.4.1-.6.3-2.7.4-.1-.2-.7.4-.1-.1-.2-.1-2.6-.1-2.9-.5-2.9-1.1-2.7-1.2-2.6-1.3-2.6-1.7-2.4-2.4-1.6-2.2-1.9-2.6-1.3-2.4-1.7-2.9-.5-2.9-.1-3.1.2-2.5.2-.1.4-2.6-.1-2.9.2-3.7.3-1.3.1 1.5.2 3.6.2v.7l-3.6-.3-3.6.1h-3.6v-.6l2.2-.3-2.4-.4h-2.5c-.1.1-.3.2-.6.1v-.1h-.6l-3.7.1-3.7.4-3.8-.8-3.6-.2-3.6.3-2.9-.2-2.8-.6-2.8.2-2.7-.4-2.7-.6-2.8.1v-.3l-.4.7-.4.6.6.6-.9.4.2 4.6-.2 2.3-.1-.3-1 1 .1 2.3.2-.3.2.4 3-.2 3-.1 3 .2 3-.2 3 .3.2.7-.2 2.7v.3l-.3.7.2 3 .4 3 .1 3-.1 2.3c.2.5.2 1 .2 1.7h-.2l.1 2.1.1 3-.4 2.5-.3 2.6.1 2.6.2 3.2-.4 3.2.2 3.2v3.3l.1 3.3.6 3.3v2.9l-.1 2.7-.6.3.2 3.2.5 3.2-.1 3.2.1 3.2-.1 3.2.3 3.2-.2 3.2.3 3.2-.6 3.2.3.7 1.4.3-1.5.4-.1.7 1.4.2-1.3.2-.1.2v-.1l-1.7 2.5h.1l.7.1.1 2.9v1l.5 2.2-.1 1.1-.3 2.6-.8.8-.1 3.5.2 2.5.5 2.5.6.3-.5 3.4.1 3.4.3.5.6-.3.9.2c0-.1.1-.1.1-.2.7 0 1.1.2 1.4.5l.7.1h.3l2.2.2 3.5-.1-.5.1.5.4v1l2.1-.3v-.1l.8-.6-.2-.3-.2-3.5-.1-3.5.4-3.6-.2-3.6v-3.2l-.1-3.2-.3-3.2v-6.4l.1-3.2-.1-3.2.4-3.2-.4-3.2.2-3.2-.1-3.2.3-3.2v-3.2l.1-3.2-.4-3.2-.1-3.2.4-3.2-.2-3.2.3-3.2 3-.2 3.2-.1 3.2-.1 3.4.1 3.3.7 3.3.1 3.7.3 3.7.3 3.4.1c.1-.1.3-.2.5-.1v.2l.9-.9 1.6-.4 2.7-.2 3.7.3.3-.2.2.2.9.3 1.9.5 2.1.2.2.3.5.4.8.1 3.9 1.8 2.6 1.4 2.6 1.3 2.4 1.6 1.3 1.2 1 .3.9.5 1 1.6 1.7 1 .3 1 1.9 2.6.3.2.9.5 1.2 1.7 2.2 3.7.4.2 1.3 3.5 1.7 3.3 1.3 3.5 1.3 2.7.6 3.3.6 3.3.2 3.4.1 3.4.2 3.4-.1 3.4-.1 3.4-.8 3.3-.7 3.3-.6 3.3-1.3 3.4-.8 3.6-1.6 3.3-2 3.1-.4.5-.3 1.1-1 1.4-.1.1-.2.1-2.3 2.7-2.1 2.8.2.3-.4-.3-.4.2-2.9 2.7-3.1 2.5-2.1 1.8-1.4.9-1.1.1-.8.8-1.4.9-4.1 1.2-4 1.8-2-.1-1 .7-.7.1-2.3-.1H79l-1-.3-1.9.4-3.2-.6-3.2-.1h-3.2l-3.1-.6-3-1.2-3-1.1-3-1.2-3-1.1-2.7-1.8-2.9-1.4-2.7-1.7-2.6-1.9-2.5-2-2.4-2.2-2.3-2.3-2-2.5-2.1-2.4-.1-.1c0 .4-.3.5-.8.5-.1-.4.2-.5.2-.8.1.1.3.2.5.2l-2-2.2-1.7-3-1.9-2.8-1.9-2.9-2.3-2.6-1.5-3.1-1.7-3-1.1-3.3-1.2-3.2-.7-3-1-2.9-1.1-2.9-.5-3.1-1-3-.5-3.1-.1-3.2.5.2h.5l.3-.5-.1-1.5-.1-.9.1-.2v-.1l-1-.5-.6.4.5-1.2-.8-.7-.5.9-4.4-.4.1.1-1.1-.1-.7.5-1.5-.3.1.7v.3h1.1l-.2 3.3.3 3.1.5 2.7.2.6v1.4l.7 4.7.2-.7.2.1.7 2.1.5 3.6 1 3.6.5 3.7 1.7 3.4 1 3.2 1.3 3.1 1.8 2.9 1.6 3-.2.7.3.8 2 2.4 1.3 2.8 2.1 2.3 1.7 2.5 2 2.3 1.6 2.6.5.1 1.3 1 .7 1 .3.3 2 2.3 2.3 2 2.2 2.1 2.5 1.7 2.8 1.7 2.8 1.5.2.1.6.2.2.2 1.7 1.1 1.2.2-.1.4.4.4 3 1 2.8 1.3 1.3.8.8.2 2.7.6 2.6 1H60l3.7 1 3.8.7.3-.2 2.1.4.4.7 3.2.3 3.1-.7-.1.1h1.8l.6-.1 1.1-.2 2.5-.4 2.9-.7 3-.3-.3.1.8.1.4.5 2.8-1.1 2.9-.8 2.6-1.7 2.3-.9h.5l1.7-1.2 1.3-.9.5.1v.2l.1-.3 2.5-1.8 2.4-2 2.5-2 2.4-2.1 1.7-2.7 2.1-2.4 2.8-3.3.9-2.1 1.9-1.9.1-.2.2-1.5 1.1-2.3 1.7-2.9.8-3.3 1.3-3.1 1.4-3.1.7-3.3.7-3.3.4-3.3.1-3.4.2-3.4-.2-3.4.6-3.2zM98.7 78.1c.9.4-.3.7-.8.8-.3-.9 1.1.1.8-.8zM21.2 58.4c.7 0 .7.8.7 1.4-.4-.2-.7-.6-.7-1.4zm2.1 2.9c.8-.1 1 .3 1 .8-.7.1-1.2 0-1-.8zm2.2.1c-.5 0-.6-.3-.6-.8.5 0 .6.3.6.8zm-.6-4.6c.4-.3.8-.6 1.6-.5-.2 1.2.8 1.5.7 2.6-1.4.5-1.5-1.5-2.3-2.1zm38.8 3.7c-.1.4-1.1.1-1.2 0 .1-.5 1-.2 1.2 0zM36.9 95.1v.3-.6.3zm-.6 11.1c.6 0 .5 1.4-.2 1.2-.1-.8-.3-.8.2-1.2zm-1 9.3c-.1-.8 1.1-.2.8-1.2.5-.1.4.4.8.4-.7.4-.7 1.1-.3 1.8-.6-.1-.9-.5-1.3-1zm.4 40.6c.2-.3.2-.7.4-1 .5.2.4 1.2-.4 1zm.7-17.5l-.6-3.9.3-3.6.1-3.9.5 4.3-.4 3.4.1 3.7zm.8 11.6l-.2-3.3.4-1.6.9 2-1.1 2.9zm-.3-23l-.5-2.7 2.4 1.3-1.9 1.4zm2.5 35.2c-.6-.1-.3-.8-.3-1.4.4.2.4.7.3 1.4zm-1.2-70.5c.2-.6 1-.6 1.6-.7-.1.6-1 .5-1.6.7zm2.4 27.2c.5.3 1.3.4 1.1 1.2-.7-.1-1.6-.7-1.1-1.2zm.2 28c.5.1.7.6.8 1-.4-.2-1-.2-.8-1zm1.6-18.3c-.5 0-.6-.3-1-.4.2-.6.5-.2 1-.2v.6zm7.5-30.1c.3.2.4.6.4 1.2-.6 0-.6-.9-.4-1.2zm-.3-.6v-1c.3.2.7.4.6 1h-.6zm.6 3.2c.5.2.5.9.5 1.6-.6 0-.8-1.2-.5-1.6zm1.9-2.7c0 .8-.6.9-1.2 1-.2-1 .9-1.2 1.2-1zm-.6 2v-.8c.4-.1.5.2.8.2 0 .6-.5.5-.8.6zm3.2.1c.8.2.1 1.8.5 2.4-.8-.2-.1-1.8-.5-2.4zm15.7-.7h-.8l.5-.3-.3-.6.4.2-.1.2.4.3-.1.2zm3 7.3c.5 0 .4-.3.8 0 .1.8-1 .7-.8 0zm.7-9.2c0 1-.1 2-.1 3-.6-.2-.6-2.8.1-3zm12-3.4c.2-.7.4-.1 1-.2.1.8-.9.4-1 .2zm3.8-11.5l-.3 1.5-1.5 3.6-.8 2.2-1.6 1.6v.4l-.3.3-2 1.6-.8.8-3.5 1.1-3-.2-2 .7c-.1.1-.2.2-.5.2l-.9.3-.3.2-.8.3-3.6 2-.9-.1.3-.6-.7-.6.3-.3.1-.3-.2-.3v-.5l-.6-.1-1 .7-.2.2-.5-.4v.5l-.4-.4-.6.6v-.6l-.6.2-1.1.1c-.1.1 0 .2.3.3-.3.3-.4.8-1 .8.1-.4.1-.7 0-1h-.4l-1.8.7h-.1l-.3-.5-.6-.5-.9.2-1.5 1-.8-.6c0 .3-.1.7-.1 1-.5-.1-.4-.7-.3-1.3l-.5-.4-.4-.4-.2-.2-.5-.1-.7.1-1-.2-.6-.5h-1.9l.1-.4h-.6v.1l-.9.7-.4.8v.3l-.4-.8-.9.6-.2.2.2 1.4-.3.6-.4.2.3-.9-.3-.7-.3-.7.1-.2-.3-.2-.1-.2v-.4c-.2-.1-.4-.2-.7-.3l.1.2-.6-.3v-.1c-.7-.2-1.3-.4-1.5-1 0-.7 1-.3 1-1l.1.1-.1-1.5.3-1.8v2.8l-.2.5c.4.3.7.6 1.1.7l.4-.1-.1-1.2v-.4l.1-.3.1-.5v-.2l-.1-.1.4-.8-.4-2.1.2-.8v-.3l-.3-.6v-.1l-.2-.5.6-3.1-.1-3-.5-4.4.2-.2-.2-3L44 71l-.2-.3.2-.3-.4-2.1.5-.4-.6-.4-.1-1.3.3.3 1.8-.1.1-.4.7.3v-.1l.7-.4.4-.2-.2-.3.4-.1.4.1.9-.6v-.6l.2.1.5.4.6.2.7-.4.5.1 1 .2.3.1.2-.2 4 .5 4-.3 3.7-.2 3.7-.6.5.7.6-.1v.1l2.6-.3 1 .2.3.1.6.1.7-.3.8-.1.2.1.4.5 1.6-.3.9-.2h.6l.3.5 1.2.2.4.2.6.2 1.2.4.1.1 1.4.6 1.2 1.1 1.1.9.9 1.5h.5l1.5 2.7.2.2.4 2.5.2 2.5-.4 3.6v1.5zm17.6 29.8c-.3-.2-.4-.6-.4-1.2.5.1.8.8.4 1.2zM4.1 140.4l-.1-.9.6.3.5.1.7.1 1.6.7-3.3-.3zm30.6 65.9c.1-.6-.7-.6-.2-1 .4.1.3.6 1 .4-.3.2-.3.7-.8.6zM83 220.5c-.7-.1-1.6-.7-1.1-1.2.5.2 1.2.3 1.1 1.2zm19.7-7.2l.7-.9.5-.3-1.2 1.2zm1-11c-.3-.3 1.3-.3 1.8-.3.3.7.8 1 .9 1.8-1.2-.2-.9-1.8-2.7-1.5zm6.2 5.3l-2.3 1.8-1.6 1 1-.9 2.5-1.7 2.1-2.1.5-.3-2.2 2.2zm18.1-68.3c.4.3 1.1.4 1 1.2-.5-.1-.4.3-1 .2-.1-.4-.4-1 0-1.4zm-.8 5.4c-.3-.7.6-1.3.1-1.6.2-.3.5-.4 1-.4-.3.6.3 1.6-.3 2.4-.6.2-.4-.4-.8-.4zm.7 1.6c.7.2 1.6 1.3 1.3 1.8-1.1.1-1.8-.8-1.3-1.8zm1.7 3.9c0 .7-1.1.9-1 0 .5 0 .6-.4 1 0zm.4 13.2c-.5-.5-.9.1-.8.8-1.4-.1-.1-1.8-.7-1.8-.1-.6.6-.4.4-1 .5 0 1.1 0 1.4.3-.6.6-.5.6-.3 1.7zm-1.2-3.3c.5.1.8 0 .8-.4.5.1.1.9 0 1-.6.1-.9 0-.8-.6zm.6-4.7c.6-.5-.5-.5-.4-1.2.7-.6 1.1.4 1.6.7-.2.3-.5.6-1.2.5z"/><g fill="#FFF"><path d="M185.7 90.7l-.2.1.2.1.3-.1v-.1"/><path d="M184.3 90.7l-.1.9 1.3-.8-.8-.1M186.4 90.8h-.4v1.5l.3-.6.3-1.1h-.6v.1M184.2 92.2v-.6.5M184.2 91.6"/><path d="M207.4 126.8l-.5-3.7-.5-3.5-.3-3.5.2-.3-.4-.5v-.1l-.7-1-.5-.5v-.1h-.1v-1.4l.1-1 .1-.3-.3-.3-.1-1.1-.2-1.7.1-.1-.1-.4.1-.3-.7-3.3-.7-3.3-.7-3.3-.8-3.3-.7-2.9c-.1-.3-.2-.7-.4-.9.1 0 .1-.1.2-.1l-.2-.7c-.2.1-.4.1-.4.4-.5-.4-.6-.5-1.4-.9-.5.4.8.8.7 1.4-.5.2-1 .5-1 1.2-1-1 .1-2.5-.5-3 .2-.3.6-.4.6-.8 1.2-.1 1.2.9 1.8 1.3l-.3-1.2-.6-3.1-.6-3.1.2-.3-.2-.2-.3-1 .1-.2v-.2l-.9-3.8-.4-2.1.3-.5v-.3l-.5-1.5v-1.8l-.8-3.2-.7-3.2-.6-3.5-.7-3.5-.2-1.2-.7-.4-1.9.1-1.3-.3-2.3-.6h-1l-2.1.5-1.4.6-1.6.1-.3.6-.2.3-.1 2.2-.2 1.9-.5 3.9-.5 1.8-.5 3-.3 3-.6 3.3-.2 2.1-.3.5-.1 2.7-.5 2.7-.7 2.6-.1 2.7-.3.7v.8l.2 1.3-.2.2v.4l.2.2-.1.1-.5 4.1-.6 2.8.1.1-.1.3v.7l-.4 1v.2l-.6 2.7-.4 2.8-.1 2.2-.3.6-.2 3-.2 2.1-.1.4-.2.4-.1.4-.6 3.8-.2 2.4v.2l-.4.4-.1 3.7-.3 2.5-.2.2-.3 2.1.1.4.4.3h5.2l3-.3.6-.5.1-2.8.6-3.4.4-3.4.3-3.4.4-3.4.6-3.4.6-3.4.4-3.4.3-3.4.5-3.4.3-3.4.3-2.1-.1-1.5h2l3 .1V92.3l.7-.5-.1-.6.1.3 1-.1-.1.1.4.7-.1-.8h.8l-.1-.4v-.5l-.7.2-.1.2v-.3l.8-.1.3.9.3 1.6v.5l.3.6.1.8-.1 2.6.1.1.2 1.9v.9l.1.5.2.2.2.7.3 1.5-.1.4.5 3.7.4 2.9-.2.2.7 2.3.7 2.9.1.1.5 4.1.1.2.1.2.5 2.5.6 2.4-.2 1.6-.1.6.2.3.5 1.3.7 2.9.4.4 2.1-.2h1.2l.9.2h.4l.1.2.3-.1h.1l1.5-.2 2.3-.2.3-.1.2-.4-.7-2.4-.8-2.3zM181.9 70c.8-.8 1.7 1.4 2.5 1.9-1 .3-2.2-.9-2.5-1.9zm3.6.3v-.6c.4-.1.5.2.8.2.2.7-.5.4-.8.4zm3.1 13.2l-.6.2-.8.2v.3-.1l-.7-.1-.2.2-.3.1.1-.8.1-.6.1-.4-.2-.3.1-.5.5-.9v-.3l-.1-.4-.2-.2h-.1l-.1-.1.2-.4v-.5l.2-.2v-.1l.4-1.4.1-.2.2-.4-.2-.4-.1-.1v-.2l.3-.1.2-.2-.1-.9.1-.5-.1-.4-.1-.2.1-.4v-.1l-.3-2.3-.1-1.4.6-4.7.1 2.6.4 2.6.5 1.5-.5.8-.1.1.5.6-.5.1-.2.4.3.4.1.2.3.3-.4.2.2.7.4 2.4-.1.5.4.2.3.2h.1v.3l-.3.2-.1.2-.1.2h-.1.1-.2.2l.7 2.6.4 1.2.2.1-.5.2v.1l-1.1-.1zm3.9-8.7c-.2.3-.6.4-.6.8-.6 0-.9-.4-1.4-1.1.9-.7.9 1 2 .3zm4.4 14c-1.4-.7-4.9-4-5.9-1.4-.4-.1 0-1-.1-1.4.5-.5.8 0 1-.8.8.4 1.9.2 2-.7 1 0 1.4.5 1.6-.5.7.2.7 0 1.4.3-.2.6.3.5.2 1 .4-.1.5-.4 1-.4.4.2.2.9.5 1.2-.7.1-1.7.6-2.4-.3-.8.8.3 1.7.7 3zm.8 24.4c-.5-.2-.1-1.2-.5-1.4.9-.8 2 .8.5 1.4zm3.3 9.3c.2.2.5.3 1 .2.1.9-1.4.7-1-.2z"/></g><g fill="#FFF"><path d="M163.6 55.4l-.4-.6-4.6-.1-.1.9-2.6.7-2.6.5-1-.1-4.4-.5-.4-.3-4.6-.1-2.3.3-2.5.5H137.5l-.1.3-.1.9-2.1.1-.3.5v7.1l-.1 3.3v3.3l.1 3.3V82l.1 3.3-.1 3.3v3.3l.1 3.3v3.3l-.1 3.3v6.6l.1 3.3v3.3l-.2 3.3-.1 3.3.1 3.3.1 3.3v3.3h-.1l.1.5.2.6v-.1l.8-.3.7.3.7.2v-.3h.4l3.2-.3 3.2-.2 3.3-.1 3.2-.4 3.3-.1 3.3-.1 3.2-.4-.6-.5.1-3.4.1-3.5h2.9l-.2.2.2.1-.5-.7-.1.2-.2-.1-.5-.2-1-.3-.4-.3-.7-.2-.6.3-.4-.1h-1.2l-.2-.1H154l-3.1.1-.6.1-.2.1-.5.2h-.7l-1.1-.4h-1.1l-.1-.1.1-.3-.3-1.4.3-.4v-3.5l.3-2.7-.1-.2v-2.2l-.4-2.7.1-.1.1-3.8-.6-.2-.7-.2.2-4.7.9-1.4.3-.6.3-.3-.5-2.4v-2.5l.2-.9-.1-.3.2-.5v-1h-.1l.1-.2h1v.2l.6.6.1-.2-.1-.5 4.3-.2.5.4h.4l.2-.3v.1l.3-.1.7-.4.2-3.6.2-3.6-.2-.1-.4-1.6-.7-.1-1.7.3-.2.2-.8-.1-.7-.2-1-.1-.5-.4h-1l-.1-.1h-1.1v-.3h-.2v-3l-.2-3.1-.1-3.2-.1-3.2-.2-3.2.9.1 1.8-.1.4.2 1.1-.3.2.2h3.8l2-.3.4.4h1.8l1.3-.1.2-.1 3.3-.2.4-.4.2-1.6-.2-3.3-.1-3zm-27.8 50.9c0-.5.3-.6.4-1 .8.1.1.9-.4 1zm.7-32.7c.2-.3 0-1.1.6-1 .1.6.1 1.1-.6 1zm3.3-10.3c-.4 1.3.2 1.1.3 2.2-.7-.2-1.9-2.3-.3-2.2zm.6 3c.2 0 .2.2.4.2 0 .2.1.2.2.2-.5.3-.7.9-1.4.9 0-.6.7-.6.8-1.3zm.6 6.4c-.2.3-.2.7-.4 1-.3-.3-.3-.7-.3-1.2.3-.1.4.2.7.2zm-.3 28c-.8-.1-.5-.8-.3-1.4.3.2.3.8.3 1.4zm.1-3.6c-.8.1-.7-1 0-.8v.8zm-.5-1.8c.5 0 .4-.3.8 0 .1.8-1 .7-.8 0zm.7-9.2c0 1-.1 2-.1 3-.6-.2-.6-2.8.1-3zm-.5-1.2c0-.6-.1-1.3.3-1.6.4.2.6 1.8-.3 1.6zm1.5.3l.2-.6.4.4-.6.2zm1.5 31.6l-.8 1-.6.8V115l-.1-3.6.7.8.5 1 .3.5-.1 1.1.1.5.1 1-.1.5zm.4-16.6c-.5 0-.6-1.9.1-1.8-.1.6-.1 1.2-.1 1.8zm.4 23.9l-.2-.4h.1l.1.4.2.1-.2-.1zm3-40.4h.5l.3.2.5.9-3.3-.3h-3.2l-.1-2.3 3.4.9 1.9.6zm6.8-26.1h.9l1 .1-1.9-.1zM163.1 123.9h-.2l.2.2"/></g><path fill="#FFF" d="M260.2 69.7V69.4l-.3.3M269.1 132.8v-.1l-.1.2"/><g fill="#FFF"><path d="M237 140.4v.8h.8c0-.5-.3-.8-.8-.8z"/><path d="M298 111.9l.3-4.1-.4-3.2.3-2.6.1-2.6-.2-3.2-.4-3.2-.1-3.2-.4-3.2-.8-3.1-1.1-3.1-.8-3.1-1.2-3-1.5-2.8-1.5-2.9-2.1-2.5-2.3-2.3-2.3-2.3-2.7-1.8-2.9-1.5-3.1-.8-3.1-.8-3.2-.6-.3-.1-1.3-.6-.4.1-.3-.4-.7-.1c-.1.1-.1.2.3.3-.3.3-.4.8-1 .8.2-.6 0-.9-.1-1.2l-.8-.1-3.4-.4-.5.2-.2.6.2 1.2.1.4-.2.5-.3.5.1.1.1.4-.3 1.6v.3l.1 2 .2.3.1 3.3-.1 3.7V69.7l-.2 2.6v2.8l-.2 2.8.4.7-.3.2.3 1.6.3 1-.2.4-.1-.1-.3 3.5.1 2.9-.1.2v6.4l-.2.6v2.2l.2 2c.8.6 1.6.9 2.5.8v1c-.3.2-.8.2-.8.6-.3-.4-.9-.6-1.5-.7v.2l-.1.1-.4.4v2.8l.2 2.8v2.8l-.3 3.3v3.3l.2 2.8-.1 2.8.3.5-.1 3.1-.1 1.5.4.6-.2.3v3.4l-.2.3.1.8.7-.3 2.7.4 2.8-.1 2.8-.2v.1l.3-.7.7.1.2-.4.1-.2-.1-3 .3-.3.1-.2-.3-.3.1-2.9-.2-2.9.3-2.9-.4-2.8.6-3.3-.2-1.5.4-.1-.4-3 .1-3.1v-3.1l-.5-3.1.5-1.7V95.9l.1-.6-.3-3.1-.3-3.1.4-3.1.1-3.2v-3.2l.1-3.2-.1-3.3.3-3.3v-3.3l.2-1.4.1.1.7-.1h.4l.2.3 1.7.6.1.3 4.1.9.1.1h.2l2.1 2.1 1.2 1 .6.8-.1.6 1 1 1.2 1.2.3 1.3 1.1 1.7.3.2v.1l.1.2.3.4 1.2 3.3 1.2 3.3 1.2 3.3.5 3.5.7 2.9-.2.6.1 2.6.1 1v1.8c.3.3.4 1.1 0 1.4v.5l.2 1-.1 2.7-.2 3.6v2.5c.1 0 .1 0 .3.1.1.3-.1.5-.3.5v.4h.1v.8h-.3l-.8 2.7-.9 3.5-1.2 3.1-1.4 3-1.4 3.1-2.3 2.5-.4.3-.1.7-.7.7-1.1.9-.1.2-2.7 2-2.7 2-3 1.5-3.2 1.1h-.8l-.2-.3-1.8.5-.3.1-.4-.3h-.4l-.9-.2-2.8-.2-.3-.1-3.4-.1h-3.4l-3.4-.4h-3.4l-3.4-.1-3.4-.1h-2.1c.4.7.5 1.6.6 2.1-.6.6-1.5.8-2.8.7-.2-.5-.5-1-.5-1.6.5 0 .6.4 1 0-.4-.3-.4-.8-.2-1.2l-2.7-.1-3.1.2-3.5.4-3.5.3-3.5-.1-2.6.2-2.5.5h-2.5l-1.7.1-3.1.6-3.1.7h-.4l-3.4.6-3.3 1.1-3.4.8-3.1 1.6-3.1 1.5-2.6 1.4-2.5 1.6-2.3 1.9-2.1 2.2-1.9 2.3-1.4 2.7-.2.5c.1.1.1.2.3.2-.5.7.3 1.6-.3 2.2-.2-.1-.2-.4 0-.4-.3 0-.4-.4-.5-.8l-.6 1.5-.9 3.2-.7 2.2-.3 1 .2.1-.2.2.7.2h3.1l.4.3.1.2 2.8-.1 2.8-.5h1.4l.1.4.2-.3.1-.4.6-2.2.9-3 .9-3 1.6-2.7 2-1.7 1.9-1.8.2.2.4-.3 1.7-1.1.6-.4h.3l1.6-.8.9-.6h.1l.7-.3 2.9-.7 2.9-.6 2.9-.9 3.5-.2 3.4-.3.3-.2h2.5l1.9-.6.3.2 3.4.2 3.5.1 3.4-.4 3.6-.2 3.6-.2.5.3h.3v-.1c.1 0 .2.1.2.1l2.3-.1c0-.2-.1-.3-.2-.4.5-.4 1.1-.1 1.2.3h2l2.5.3h3.5l.4.4 1.6-.3.4.7 2.7-.2 3.6.3 3.5.3 3.5.4.1.1h.5l1.7-.2 2-.1 2.1-.5 1.7-.1 3.4-1.2 3.2-1.6.1-.3 2.6-1.8 2.6-1.8 2.1-2.3 2.3-2.2 1.7-2.6 1.8-2.6 1.8-3.5 1.4-3.7 1.4-2.9.7-3.2.7-3.2 1-3.1-1.2-1 .1-.8zm-35.8-54.4l.1-.2 1.3.3-1.4-.1zm1.2 16.9c.4.1.4.6.8.6-.2.2-.1.7-.6.6-.1-.4-.4-.6-.2-1.2zm1.2 8.9c-.7-.3-.6-1.3-1.1-1.8 1-.9 1.6 1.1 1.1 1.8zm3.1-7.3c.7.2.8 1.1 1.5 1.3-.3.5-1.1.5-.9 1.6-.5-.7-1.5-2-.6-2.9zm-1.8 18.9c-.1.5.3.4.2 1-.7.3-.9-1.2-.2-1zm-.1 2.6c.7 0 .6.8.7 1.4-.7 0-.6-.8-.7-1.4zm.5 2.4c.4.2.7.5.5 1.2-.5 0-.5-.6-.5-1.2zm.3 2c.3.2.7.4.6 1h-.6v-1zm.4 1.6c.3.2.4.6.4 1.2-.7 0-.7-.9-.4-1.2zm.3 2.6c.5.2.5.9.5 1.6-.6 0-.8-1.2-.5-1.6zm1.9-2.7c0 .8-.6.9-1.2 1-.2-1 .9-1.2 1.2-1zm-.7 2v-.8c.4-.1.5.2.8.2.1.5-.4.5-.8.6zm1-15.6c-1.2-3.1-1.1-6.7-1.6-10.6 1.3 1 .9 1.9.8 3.8 0 2.2 1 4.6.8 6.8zm1.2-29.5c0-.4-.2-.4-.2-.8.6.3.2-.6.8-.4.4.5.3 1.5-.6 1.2zm17.3 8.2v-.8h.8c-.1.5-.4.7-.8.8zm1.9 11.6c-.4 1.3.2 1.1.3 2.2-.7-.2-1.8-2.4-.3-2.2zm.8 10.4c-.3-.3-.3-.7-.3-1.2.4-.1.5.2.8.2-.3.3-.3.7-.5 1zm-1-6c.1-.7.7-.7.9-1.4.2 0 .2.2.4.2 0 .2.1.2.2.2-.5.3-.7 1-1.5 1zm-51.6 58.7c-.1.4-1.1.1-1.2 0 .3-.6.7-.3 1.2 0zm-1.3 1.3c.6.1 1 .4 1.4.7-.2.3-.7.3-1 .4.2.8.2 1.7 1.3 1.6-1.7.7-1.7-1.5-1.7-2.7zm7.1-1.7c-.6 0-1.1 0-1-.6.5.1.4-.3 1-.2v.8zm46.9-25.3c-.8-.1-.5-.8-.3-1.4.3.2.3.7.3 1.4zm.7 8.7c.4 0 .3-.5.8-.4.4.2-.2 1.4.3 1.6-.4.4-1.1-.3-1.1-1.2zm2.5-9.2c-.5 0-.6-1.9.1-1.8 0 .6-.1 1.2-.1 1.8zm.9-30.6c.1-.5.3-.8.4-1.2.8-.1.7.5 1.2.6-.3.6-1.1.8-1.6.6z"/></g><g fill="#FFF"><path d="M441.3 76.7h.1v-.1"/><path d="M504.6 169.6v-1.4l-.6-1.6.3-.6v-.2l-.1-.4.2-.3-.3-.4-2.8-.4-2.8.1-2.9-.2-2.7-1-2.8-.7-.9-.2-2.9-1.1-.3-.3-1.1-.1-1.5-.7-.1-.6-2.8-2.1-2-1-1.7-1.9-2-1.5.3-.3-.5-.5-2-2.1-1.6-2.4-1-.9.3-.1-.5-.3-.3-.7-.1-.5-.5-1.1-2-3.2-2.1-3.2v-.7l-1.3-2.7-1.1-2.8-1.3-2.4.2-.1-.2-.3-1.3-3.1-1-3.2-1-3.2-1.2-3.2-1.2-3.2-.5-3.3-.7-3.3-.8-3.3-1-3.2-.6-3.3-.3-3.3-.8-3.3-.4-3.3-.2-3.4-.5-3.3-.4-3.3-.2-3.3-.3-3.3-.4-3.3-.5-3.3-.1-3.4.7-.8v-.5l-.1-.4.1-.8-.1-.7.2-.9.1-.4-.2-.8-1.6-.2-.3.2-.8.3-.5-.3-.2.3-.8-.1h-.3l.1-.4-.7-.3-.8.6-.3-.4-3.8.4-2.5-.2-2.5.3-.7.3-.5 3.4.1.3.2.9v1.1l-1.1 3.5v.1l-.3 2.4v1.7l-.3.3.3.2-.2 1.3v2.3l-.4.4-.2 2.7-.4 2.6-.7 4.1-.4.1-.3 3.5-.1 4.1v.3l-.4 2.9-.5 2.9-.1.2.3.3-.4 3.6.1 3.7-.9 2-.5.8.2.2-.3 3.9-.5 3.8-.4 1.2v.6l-.3.6.2 3.3-.2 3.3-.6 3.4-.8 4.6.5.3.2.5.8-.2v1l.6.3.5.2.1.9 2.6-.4h2.4l-.1-.5.2.1-.2-.5.2-.7.2.1.5-.6.1-2.5.8-3.7.1-.4.1-.2v-.3l-.6-1.6.2-1.1-.4-.1.1-.1h-.5l.7-1.9.4-1.5.3-.4v-.1l.2-1.6.3-2.3.5-.2v-.4l.2-.3.1-2.9.7-2.8.1-2.9.5-2.8.2-3 .5-2.9.2-3v-1.9l3.1.3 3-.3.5 4.1.1.4.3 1.9.2.2.6 3.1.4 3.1.9 2.5-.3-.1-.1.7.3.1.3 1.4c0-.3.1-.6.4-.5-.1.5.3.4.2 1-.3.1-.5-.1-.6-.4l.2.9.4 1.1c.5.2.4.8.5 1.4-.3 0-.5-.1-.5-.3l-.1.1.5 1.3c.4.2.6.5.4 1.2l1.1 3.1c0-.8 1-1 1.2-.8 0 .7-.5.9-1.2.9l.8 3.2.8 3.3 1.1 3.2 1.4 3 1.1 2.8c0-.3 0-.7-.1-1 .2.4.3 1 .3 1.5l1.3 2.4 1.3 3.1 1.7 2.9 1.6 2.9-.1.5 1.2 1.3 1.5 2.7 2 2.4 1.7 2.6 2.2 3 2.8 2.6 2.7 2.6 3.2 2.4 3.4 2 .3-.1.2.6 2.5.8c.5-.2 1.2-.2 1.4-.1-.2.1-.4.2-.7.3l2.1.8 2.4.7 1.8.4 1.3.7 4.1 1 4.5 1v.3l4-.6-.2-2.2.1-.6.5-.5zm-75.4-70.5c.3.5.3 1.2.3 2-1 .1-.6-1.7-.3-2zm13-40.5l-.1.4-.2-.3.3-.1zm-2.9 0l-.1.4-.2-.2.3-.2zm3 28.4l-2.6-.1-2.7.4.2-.9.1-.6.2-.2.1-.5.3.1.2-.6.1.1.1-.4v-.7l-.1.1-.3-1 .4-.1v-.4l.6-.5v-.3l.1-.2-.4-.3v-.2l.5-.5.2-.7-.5-.5.4-.8-.1-.7.3-.1-.3-.7.2-.2.5-.4-.4-.4.2-.3-.4-.3.5-.4-.2-.4.6-2.3.2-.6-.5-.3-.5-.2.3-.4.3-.1.1-.1-.1-.4h.2v-2.7l-.1-.9.3.9.1 1 .3.3.4 1.5.3 1.2.6.7h.1l-.3.2-.1.3-.3.6.1 1.1-.2.1-.1.6.3.2.1 1.2-.1.1v1.5l.1.2.1.5-.2.2-.1.2.2.2h-.1l.1.3.2.8v.1l-.4.1.4.7.1.1.1.8-.4.2.4.8.1.6.3 2.1-.1 1.3zm1.5.5c.4.1.4.6.8.6-.2.2-.1.7-.6.6 0-.5-.4-.6-.2-1.2zm1.3 8.8c-.7-.3-.6-1.3-1.1-1.8.9-.8 1.6 1.2 1.1 1.8zM443 58l.2-.5.3.1.3-.4.1-.4.1.1.3-.1.6.9.1.2.2.2-2.2-.1zm3.1 1l-.2-.2.2-.2v.4zm.9-2c-.1-.6.4-.6.2-1.2.4.3.7 1.4-.2 1.2zm1.1 32c.7.2.8 1.1 1.5 1.3-.3.5-1.1.5-.9 1.6-.5-.7-1.4-2-.6-2.9zm.9 29.4v-.8c.4-.1.5.2.8.2 0 .6-.5.6-.8.6zm1-15.5c-1.2-3.1-1.1-6.7-1.6-10.6 1.3 1 .9 1.9.8 3.8 0 2.2.9 4.5.8 6.8zm1.1 7.6c1 1 .6 2.3.8 4-.5-1-.7-2.5-.8-4zm.8 4.8c.7.1.3 1.2.3 1.8-.6 0-.3-1.1-.3-1.8zm.3 3.2c.8.2.1 1.8.5 2.4-.8-.2-.1-1.8-.5-2.4zm1.5 10.5c-.9-.5-.4-2-.7-2.6.8 0 .2 1.9.7 2.6zm-.1 2.2c-.3-.4-.4-1.1-.3-1.8.4 0 .7 1.2.3 1.8z"/></g><g fill="#FFF"><path d="M472.7 53.9h-.2.3M474.2 54l-1.4-.1.4.2"/><path d="M504.7 133.4l.3-.4-.1-.2-.7-2.4.1-.6-.1-1-.1-.3-.8-1.9v-.3l.1-.3-.1-.4-.4-.3-.3-1.5-.2-.2.1-.2-1-2.9-1.1-2.8-.9-2.3.3-.4-.3-.3-1-3.1-.8-2.1-.1-.2v-.5l-.4-.2.2-.5-1.6-3.9-1.1-2.5.3-.4-.2-.5-1.8-3.6-.9-2.6.2-.3-1.2-3.2-1.3-3.1 2.9-.1 1.3-.1.9-.6 2.6-1.5 2.1-2.2c-.7 0-.6-.8-.7-1.4.7 0 .6.8.7 1.4L501 81l1.2-2.8.7-3v-3l.2-4.5-.5-3.5-.7-2.1c-.4.3-.9.4-.7 1.4-.6-.6-1.6-2-.7-2.8.6.2.7.9 1.3 1.2l-.3-1-2.3-2.7-3.1-1.7-3.5-.8-.1-.1-.5-.3-.4-.4-1.2-.2-.9-.5-.5.2-1.1.1-.1-.1.1-.1-1.4-.2-.2.2-3.7-.1h-3.7l-.8.3h-.2l-.7-.1-.9.2-2.8-.3-.2-.1-.9-.3-.7.1-.2.1-.5.5-.2 1.1v2.1l.1.4-.9-.1-.9.1v.5l-.1 3.4v3.4l.2 3.4-.1 3.4-.1 3.4v3.4l.2 3.4-.2 3.4h.4l.6-.3.4-.8.6-1.9.4 1.6-.8 1.6v.7l-.1.3.2 3 .2 3 .2 1-.1.5-.2.5.4 3.1.2 3.1V104.6c.3 0 .5-.1 1 .2-.2.6.3.5.2 1 .4-.1.5-.4 1-.4.4.2.2.9.5 1.2-.7.1-1.7.6-2.4-.3-.8.9.3 1.8.7 3-.3-.2-.7-.4-1.2-.7l-.1 2.1-.4 3.1-.1.6-.6.1-.8-.2.8.1.7.1.7 1.2.4.7-.1.1h-.7l-.7.1.7 1.5.3 1.2v.4l.1 1.3-.2 1.9.1.2-.2.3-.1.3.2 3.1-.1 4.7.2.4h.4l3.8-.1 3.8.1.4-.6.1-3-.1-3-.3-3 .2-3.6-.2-3.6.3-.4-.2-.2v-1.3l.1-.2-.3-4.5v-2.4l.2-.5.1-.2v-1.9l.1-1.6-.2-.2.1-.2-.1-3.6v-3.6l-.1-2.8-.1-2.8v-.6l.5-.2.7.1.1.3 1.4 3.6 1.8 4.5.1.3 1.3 3.3 1.3 3.3.1.2s.1.1.2.1l-.1.1.9 3 .9 3.2 1.2 3.1 1.4 3.5.8 2.3.1.5 1 2.6.8 2.7.3.4.6 2.4.4 1.4.6 1.7.7.2.7-.1.6.3.3-.2.2.6.8 1.1v-.1l.4.5.8.1.2-.1-.3.6.1.1.2-.4.2-.1.1-.2.1.3.1.2h4.2l-.1-.6-.3.7zm-3-65.7c-.1 2.2.9 4.6.7 6.8-1.2-3.1-1.1-6.7-1.6-10.6 1.3.9.9 1.9.9 3.8zM471.3 73c-.6-.2-.6-.2-1.2 0 .2-1 1.2-1.4 1.8-.7.1.5-.8.1-.6.7zm24 12.8c-.3.2-.8.2-.8.6-.7-.9-2.7-.6-3.1-1.7 0-.7 1-.3 1-1 .9.9 1.9 1.3 3 1.1 0 .3 0 .7-.1 1zm-.5-3.7l-1.6 1.8.2-1 .1.1 1.9-2 .3-.5.4-.5-1.3 2.1zm4-2.6c-.1.5.3.4.2 1-.7.3-1-1.1-.2-1zm-1.3-11.6c-.7-.3-.6-1.3-1.1-1.8.9-.8 1.6 1.2 1.1 1.8zm-1.3-8.8c.4.1.4.6.8.6-.2.2-.1.7-.6.6 0-.5-.4-.6-.2-1.2zm-9.1-1.5h.2l.4-.5-.1-.4h.1l.5.7v.3l.3.3-1.7.1.3-.5zm-6.5 3c-.3-.2-.4-.5-.4-1 .6 0 .7.8.4 1zm-.3-3.4c-.4-.2-.5-.6-.6-1 .7-.1.7.5.6 1zm-3.2-.7c-.4-.3-.8-.7-1.2-1 .7-.6 1.1.5 1.2 1zm-3.6 15.6c.5 0 .9.1.8.6-.5.1-.9 0-.8-.6zm1.7 38.6c-.5-.4-.6-.5-1.4-.9-.5.4.8.8.7 1.4-.5.2-1 .5-1 1.2-1-1 .1-2.5-.5-3 .2-.3.6-.4.6-.8 1.4-.1 1.2 1.2 2.1 1.5.1.4-.6.2-.5.6zm1.3 1.9c-.6-.2-.6-1-.9-1.4.5-.4 1.5.6.9 1.4zm.4-5c-.4-.3-.9-.6-1-1.2.2-.1.4-.2.4-.4.7.3 1 .9.6 1.6zm.3-37.3c-.3-.5-.6-1.1-.7-1.8.6.5 1.8.5 1.7 1.7-.6-.3-.5.2-1 .1zm8.7 26.5c-.1-.8-.2-.7.2-1.2.7 0 .6 1.4-.2 1.2zm-.3-17.5l-.6.1-.3.7-.1-.2-.2-.1-.4-.2-.4-.2-.1-.1-.4.2-3.7.3v-.2l-.3-.4.1-1.2v-.1h.1v-.6l.2-.6h.1v-.3l-.3-3.2v-.5l-.5-1.2v-1.3l-.2-.2v-2.5l.2-1.5-.2-.7h.2l.6.1 1.2.1-.2.4.6.3v.2l.1.4.3.3-.1.1.4.3.2-.2-.1-.1.3.2h.9l.6-.1.2.1-.1.1.2-.1.2-.1.8-1.1v-.3l1.1-.2.3-.3.7.1.3-.1h.5l.3.2.3-.1h1.1l.2-.2.1.2.6-.1.6-.2.6.1.2.2 1.5-.1.2-.4 1.7 2.7v4.4h.3l1.2.1.1.2-.1.3.1.3.1.5-.4 1.4-.1.3-.2.4-.7.1v.3l-.1.3.1.4v.2l-.2.1-.7.6-.4.4.1.5h-.2l-.4.6-.6.3h-.2l-.2.2h-.4l-.3-.2h-.4l-.4.1-.5.3-.1-.2-.2-.2-.5.1-4.3-.2zm2.5 2c.2-.6 1-.6 1.6-.7-.1.6-1 .5-1.6.7zm4.2 36.9c-.5 0-.6-.3-1-.4.2-.6.5-.2 1-.2v.6z"/><path d="M472.4 53.9l.1.1v-.1"/></g><path fill="#FFF" d="M540.2 123.6h-2.5l-.7.1-2.7-.4h-1.2l-4.2.2-1.3-.1-3.2.1-1.3.1-.2-2.2.3-2.6-.2-4.9.2-.4-.1-.4-.1-.7-.4-1.1.1-.2.2-.4-.2-3.4.1-3.3-.1-.3.1-.2-.3-1.4.2-.3.5-2.6-.3-2.6-.2-2 .5-.5-.3-.3-.2-2.2.1-1.4v-.7l.2-.2.6-.1c-.1-.2-.2-.5-.2-.8.3.3.8.4 1.2.7l1.2-.1h2.2l.1-.1.5.4 1.9-.2.4-.7.2-1.2-.1-1.2.2-1.9.1-.2-.2-2.5-.1-.3-.3-.2-2.4.1-2.7-.2-2.8.4-.2-4.1.1-.5.1-.3h-.1l-.6-2.7-.4-1.1-.1-.2.2-.6-1.7-.1-1-.1v-2.3c-.4-.3-.7-.7-.7-1.4.6 0 .7.6.7 1.1v-.2l.2-2.8v-2.7l3.3-.2 3.3.2h6.6l3.3.1 3.4-.2-.1 1.1.6-.4.4.3 1.1-1 .2-.4.2-.3.2-1 .4-.8-.3-.4v-1h.1V58l-.1-.2-.1-.2.1-.3.1-.2-.3-2.1-.4-.5H538l-3.3.1-.3-.1-.4.3-.8.1-2.2-.6-.1-.1-1.7.1h-.4v-.1h-.5l-.4-.1-.2.3-.7-.1-1.5.1h-.4l-3.5-.3-2.7-.1-.1.2-.6-.1-1.1.2h-1.6l-1-.2v.3l-.6.4V57l.4 1-.1.4v.5l-.1 3.1v3.1l.2 3.1-.5-.2v.2l.1.2v.5l-.1.5v.2l.1 2.5.3 2.5-.2.9v.3l-.3.6.6 3.9.2 3.9-.7.5-.1.4v.1l.1.5-.2.4v.4l-.1.6V88l.1 1.3.3 1-.1.2-.2 1.1.3.1v.5l-.1.3.8 1.3.6.5-.1.1h.2l-.4 1.2-.4.9v1l-.7 1.7h.5l-.3 4.4.4.4v2.9l-.2 2.9-.1 2.9v2.9c1 0 .5 0 .7-.1-.2.2-.3.3-.4.5l.2 2.5.1 2.9v4.4c.8.3 1.7 0 1.8-.8 1 0 1.4.5 1.6-.5.7.2.7 0 1.4.3-.2.6.3.5.2 1 .4-.1.5-.4 1-.4.4.2.2.9.6 1.2-.7.1-1.7.6-2.4-.3-.8.9.3 1.8.7 3-1.1-.6-3.4-2.6-4.9-2.3l-.2 1.3-.3 1.4h.2l.1.5-.1 1.5.1 1.2h.1l3.1.1 3.1.1 3.1-.2h6.2l3.1.3 3.1-.1.8-.2h.4l.9.5h-.1l.1.8 1.1-.1v-.7l.8.2-.2-.6-.5-.1-.2-2.3 1.3-2 .4-2.1.3-.4-.2-2.2-1-.3zM537 61.4v-.1.1zm.1-2.7h2.3l-.5.3-.3 1.2-.2.4-.6-.1-.6.2-.1-2zM537 61h.1-.1zm-17.9 11h-.1.1zm8.3-14.1l-.3-.2 1.1-.3v-.2l4.2 1H526l-3.2-.2 2.3-.3 2.3.2zm-11.3.4v-1.2h2.7l2.8 1-2.3.2h-3.2zm2.4 34.7c-.6-.2-.6-.2-1.2 0 .2-1 1.2-1.4 1.8-.7.1.4-.8 0-.6.7zm2.2-.9c.5 0 .9.1.8.6-.5.1-.9-.1-.8-.6zm1.7 38.6c-.5-.4-.6-.5-1.4-.9-.5.4.8.8.7 1.4-.5.2-1 .5-1 1.2-1-1 .1-2.5-.5-3 .2-.3.6-.4.6-.8 1.4-.1 1.2 1.2 2.1 1.5.1.4-.6.1-.5.6zm1.3 1.8c-.6-.2-.6-1-.9-1.4.4-.4 1.5.7.9 1.4zm.4-4.9c-.4-.3-.9-.6-1-1.2.2-.1.4-.2.4-.4.7.2 1 .8.6 1.6zm9.6-1.6c-.6-.2-1-.6-1.4-1.1-.1-.8 1.1-.2.8-1.2.5-.1.4.4.8.4-.6.5-.6 1.1-.2 1.9zM195.9 28.7l-.1-.8-.2-.8-.2-.8.1-.8-.2-.8-.3-.7v-.8l-.1-.8-.2-.8-.2-.8V20l-.3-.7v-.8l-.2-.8-.2-.8.1-.8-.2-.8-.2-.8-.2-.8-.1-.8v-.8l-.1-.8-.1-.8-.3-.8-.1-.8v-.8l-.4-.7v-.8l-.2-.8-.1-.8-.1-.8-.1-.8-.2-.8-.2-.7-.6-.6-.6-.6-.7-.5h-1.5l-.8-.1h-.8l-.7.2-.7.5-.5.8-.7.5V3l-.3.8.1.9-.2.9-.1.9-.2 1.1v.9l-.3.8-.1.9-.1.9-.2.8v.9l-.2.8.1.9v.1c.1 0 .1-.1.1-.2.7.3 1.9 1.3.9 2-.5-.3-1-.7-1.2-1.3v1.1l-.2.8-.1.9-.2.8-.2.9v.9l-.1.9-.3.8-.1.9v.9l-.5.8-.3.9v.9l-.1.8-.1.9.1.9-.1.8.7.1h.8l.8.1.8.2h.7l.2-.7.2-.8V28l.2-.8v-.8l.2-.8.2-.8V24l.2-.8.1-.8.1-.8.2-.8.2-.8.1-.8v-.8l.2-.8h1.4l.7.1.8-.1.8.1h.8l.1.2v.8l.3.8.1.8.1.8.1.8.1.8.2.8v.8l.1.8.3.8v.8l.1.8.1.8.3.8.1.8.2.7.7.1.7-.3.8-.1.7-.2.7-.1v-.8l-.1-.5zm-13.2-15.9c.3-.6-.1-.7.2-1.2.9.1-.5 1.2.8 1-.1.7-.5.3-1 .2zm5.8.9l-.9-.1h-.8l-.9.1.2-.9.1-.9.1-.9v-.8l.3-.8v-.8l.2-.8.1-.8v-.8l.3-.8.1-.8h.4l.3.8.2.8V7l.1.8.1.8.3.8.1.8v.8l.3.8v.8l.2.9-.8.2zm.9-2.2c.6.1.8.4.8 1-.4-.3-.7-.5-.8-1zM261.1 16l-.1-.8v-1.6l.2-.8-.2-.8V9.6l.1-.8-.1-.8.1-.8v-.8l-.1-.7.1-.8V3.3l-.1-.8.1-.8-.7-.6-.6-.8-.6.7-.6.6v.8l-.1.9-.3.9-.2.9V6l.3.9.2.9-.2.9.1.9.1.9-.2.9.1.9.1.8v2.5l-.5-.5-.3-.7-.5-.5-.5-.5-.3-.7-.6-.5-.4-.7-.5-.6-.4-.6-.5-.6-.4-.7-.4-.6-.5-.6-.3-.7-.5-.5-.4-.6-.5-1-.5-.6-.5-.6-.6-.5-.3-.7-.6-.5-.5-.6-.3-.7-.7-.2-.8-.3-.4.7-.6.6.1.8.1.8-.1.8.1.8.1.8v.8l-.2.8.2.8v.8l-.1.8-.1.8.1.8v1.6l-.1.8.1.8v3.2l-.1.8.1.8.1.8v1.6l-.1.8.1.8v.8l-.2.8v.8l.1.8.1.8v.8l-.2.8.1.8-.1.8h2.7l-.1-.8.1-.8V28l-.1-.8.1-.8-.2-.8.2-.6v-1.6l-.1-.8.2-.8-.2-.8.2-.8-.1-.8.1-.8-.1-.8v-1.6l.2-.8v-1.6l-.1-.8v-.8l-.1-.8-.1-.8.1-.8V8.2l.1-.8-.2-.8.2-.8-.1-.1.5.6.5.7.5.7.6.7.5.7.4.8.7.6.4.8.6.7.6.7.5.7.5.7.5.7.4.8.6.7.4.8.7.6.5.7.5.7.6.7-.1.9.1.9-.1.9.1.9-.1.9-.1.9v2.7l.1.9-.1.9v.9l.9-.1.9.1.8-.1.2-.8-.1-.8v-.8l.1-.8v-.8l-.2-.8.2-.8-.1-.8.1-.8v-.8l-.1-.8v-.8l.1-.8v-.8l.2-.8v-.8l-.1-.8-.1-.9zM249.3 4.8c.7 0 .7.8.7 1.4-.4-.2-.7-.6-.7-1.4zm2.1 2.9c.8-.1 1 .3 1 .8-.7.1-1.2-.1-1-.8zm2.8 4.7c.6-.6 1.1.5 1.2 1-.5-.3-.9-.6-1.2-1zm4.6 5.2c-.3-.2-.4-.5-.4-1 .6-.1.7.7.4 1zm1 10c.3.5.3 1.2.3 2-1 .1-.6-1.6-.3-2zM412.4 167.5l-.2-.4-.6.1.4-.9.3-.5-.6-.1-3.4.3h-3.4l-.2-.1-2-.4-.1-.3-.2-.1-.6.3v.6l.2 3.7-.8 3.7-.6 3.7-1.2 3.6-.8 3.7-1.5 3.5-2.3 3-1.5 2.7-2.1 2.2-2.4 1.9-2.3 1.9-.2.2-.8.7-.6.4-.1.5-.8.2-1.3 1.1-2.5.8-1.7.8-.7.1-.4.2-.8.4-1.3.4-3.6.1-3.7.2-1.1-.3-.7-.1-.6-.5-1-.4-2.7-.6-.7-.7-2.7-1.1-2.7-1.3-2.2-2-2-2.2-1.8-2.3-2.3-2.4-1.6-2.9-1.7-2.9-1.2-3.1-1-3.1-.9-3.2-.8-3.2-.6-3.3.2-3.3-.1-3.3-.3-3.3.4-3.3v-3.3l.2-3.3-.3-3.3-.1-3.3.5-3.3.2-3.3-.3-3.3.2-3.3.1-2.6c-.1-.1-.2-.3-.2-.6.1-.1.1-.1.2-.1l-.2-3.3-.4-3.3.4-3.3-.5-3.3v-3.3l.3-3.3v-3.3l-.5-3.3-.1-.3.5-.2.1-3.5.1-3.6.8-3.5.2-3.6 1.6-3.2.1-.2v-.4l1.3-3.4 1.7-3.3 1.8-3.2 2.1-2 1.8-2.2 2.1-2 1.1-.7c-.1-.1-.2-.3-.2-.5.2-.2.5-.1.8.1l.7-.5 2.8-1.3 2.8-1.4 2.8-1.3 2.6-.6 3.1-.2H371l.1-.1.2.2.3-.1.1.1.2.4 1.5.2 1.1.2.3.2 1.6 1 .2-.1.2.1 1.8.2.9.3.4.8.5-.1 1.7.9.3-.1-.1.5 3.1 1.6 2.5 2.4 2.5 2.4 2.2 2.7 1.9 2.9.2.1.9 1.6.7.5.1.1.6.3.5 3.3 1.2 1.8.5 1-.2.2.1 1.1.4.9.7 1.4.1 1.4.5 1.8v.4l.4 3.2.9 2.6-.5.8.4.4-.4 3.1.4.9.9.2.3.5.4-.2 2.8-.1 2.8-.1 2.8.2.3-.2v-.5l-.1-2.5.1-2.5v-.7l.1-1.4.1-2-1-2.2-.2-1-.7-2.9-.1-.6-.5-2.9-.4-1.4-.6-3-1.3-3-1.6-2.9c-.5 0-1.1-.8-.5-1l-1-2-1.6-2.9-1.8-2.8-2.1-2.6-2.7-2.3-2.4-2.6-1.2-.7c.6 1.5 1.3 3 1.6 4.5-.9-1.4-1.6-3.1-2.2-4.9l-1.2-.7-3-1.7-3-1.7-3.3-1.1-3.4-.8-3.1-.4h-1.9l-1.1-.1-1.7-.4h-.1l-3.2.3-3.1.7-3.2.3-3.1 1-2.9 1.4-2.7 1.7-2.7 1.8-2.7 1.7-1.8 1.1-.1.6-.7.6-1 1-.7.8L341 64l-2.8 3.2-2.3 3.4-.7 2.1-.5 1.5.2 1.1-1.7 2.8.1.2-.4 1.1-1.5 2.6-.3.3-.8 3.7-.5 2-.1 2v.4l-.2.6-.2.4.1 1.7-.2 1.4v.7l-.1 1.3-.5 2.8.4 3.9.2 3.9-.4 3.5.2 3.5v7l-.1 3.5.1 3.1.3 3.1.1 3.1-.3 3.2.2 3.2v3.2l-.3 3.2.1 3.2.5 3.2-.5 3.1.3.4.2 3.5-.2.3v4.2l.3 3-.1 1.2.5 3.6v2.7l.6 1.2v.1l-.5.7.2.1 1 2.5.2 1.4.2.8.2.2.9 2.7-.2.5 1.8 3 1.5 3.1 1.3 3.2 2.1 2.7 2.1 2.7 1.9 2.9 2.3 2.6 2.9 1.9 2.6 2.3 2.8 2.1 3.1 1.2 3.1.9 3.2.6 3.2.6-.3.3.7.7 2.6.4 2.1-.7-.2-.4 2.8-.1 2.9.1.2-.5.3.4 1.2-.3 1.2-.4.3-.1.5-.6h.2c-.1-.1-.2-.2-.3-.4.4-.1.2-.6.7-.5 0 .3.1.5.2.7l1.3-.3.3.1.4-.5.2-.3 3.8-1.7.8.2.2-.9 3.3-1.3 2.8-2.2 2.2-2.8 2.7-2.3 2.4-2.6 1.5-2.7 1.7-2.6 1.3-2.8.9-2.9 1.1-2.8.5-1.8c-.3.2-.8.1-.7-.5.4 0 .6-.3.9 0l.2-.7 1.1-3 .3-3.2.4-3.2-.4-.2.3-1.5.5-.4-.1-.8.2-.3.6-.5.2.2-.1-.6.3-.7h-.2l.8-.6h-1zm-6.7-74c-.8-.8-.9-2.7-1.3-4 .7 1 .9 2.6 1.3 4zm-1.5-4.8c-.4-.4-.6-1-.7-1.7.4-.1.9 1.1.7 1.7zm-.4-2.2c-1-.3-.9-1.9-1.2-2.4.7-.1.6 1.9 1.2 2.4zm-6.9-9.3c0-.3-.1-.5-.1-.8.4-.2.5 0 .8.1.1.5-.3.6-.7.7zm4.5 6.7c-.3-.2-.4-.6-.4-1.2.5.1.8.7.4 1.2zm-.3-5c-.8-.1-.5-1.8-1-2.3.8.1.5 1.8 1 2.3zm-1.3-3.6c-.7 0-.5-1.1-.7-1.7.7 0 .5 1.1.7 1.7zm-.8-2.5c-.8-.9-1.2-2.4-1.7-3.8 1.2.8 1 2.2 1.7 3.8zm-1.9 2.4c.2.7-.3 1-1 1.2-.3-.9.7-1.4 1-1.2zm-1.5 1.7c-.6.1-.8-.8-.6-1.1.4.1.6.5.6 1.1zm-.5-1.8c-.2 0-.4.1-.6.1-.1-.3-.1-.7-.2-1 .4.2.8.3.8.9zm-.7-1.7c-.6.1-.7-.5-.8-1.1.5.2.8.4.8 1.1zm-.8-2c-.7.1-.8-.7-1-1.2.7-.2.8.6 1 1.2zm-1.5-3.8c0 .5.4.4.4.9-.6.4-1.1-.9-.4-.9zm-3.8-11.1c-.8-.1-.9-1.2-1.5-1.6.8-1 1.9.9 1.5 1.6zm-18-3.5c-.3-.1-.5-.4-.6-.9.6-.1.8.6.6.9zM345 61.4c.1.1.4 1 0 1-.7.3-.6-1.3 0-1zm-1 3.8c.7-.4 1.1-.2 1.8-.3.3 1.1-.8.7-.7 1.6-.5-.1-.8-.3-1.2-.4.1-.4.1-.7.1-.9zm-1.7 11.1l.6-.2.2.4-2.5 1.3 1.7-1.5zm-12 43.7c.6 0 .6.5 1.2.4-.1.9-1 1-1.6.7-.1-.5.3-.7.4-1.1zm.4 4.6c-.6.3-.6-1.3 0-1 .2.1.5 1 0 1zm.3 4c-.5-.1-.8-.3-1.2-.4v-.8c.7-.4 1.1-.2 1.8-.3.3 1-.8.6-.6 1.5zm3.5-38.6c.5.3 1.3.4 1.1 1.2-.7-.1-1.6-.7-1.1-1.2zm.2 25.6c-.5.5.2 1.2.1 2-.5-.1-.8-.3-1.2-.4.3-.7.2-1.7 1.1-1.6zm.3 47.2l-1.1 1.3-.8-1.6 1.9.3zm-2-31c.4.2.4.8.3 1.4-.5 0-.3-.8-.3-1.4zm0 24.2c.5.1.4-.3 1-.2v.8c-.6.1-1.1 0-1-.6zm.1 24.5v-.4l.8.6-.8-.2zm1-12.4l-.5-3.8.8 1.5c0-.3-.2-.6-.4-.9.7 0 1.5.9 1.1 1.6-.3 0-.3-.2-.5-.3l.3.6.7 4.4-1.5-3.1zm1.3 13.8l-.2-.5 1 .4-.8.1zm.5-30.8l-.4-.6h.9l-.5.6zm71.8 21.3c.4.3 1.1.4 1 1.2-.5-.1-.4.3-1 .2-.1-.4-.4-1 0-1.4zm-.8 5.4c-.3-.7.6-1.3.1-1.6.2-.3.5-.4 1-.4-.3.6.3 1.6-.3 2.4-.6.1-.4-.4-.8-.4zm2.1 3.5c-1.2 0-1.8-.9-1.3-1.8.7.1 1.6 1.2 1.3 1.8zM280.2 28.6l-.1-.8-.2-.8v-1.6l-.1-.8-.1-.8-.3-.7.1-.8-.2-.8-.2-.8-.2-.8-.2-.8-.1-.8v-.8l-.3-.7-.1-.8-.1-.8-.2-.8-.1-.8v-.8l-.1-.8-.2-.8v-.8l-.3-.8-.2-.3-.2-.8v-.8l-.2-.7-.1-.8-.1-.8-.2-.8v-.8l-.3-.8v-.8l-.6-.6-.6-.5-.7-.4-.8.1-.8.1-.8-.2h-.8l-.8.1-.7.5-.5.7-.7.6v.9l-.1.6V5l-.3.8.1.9-.1.9-.3.8-.1.9v.9l-.3.8-.1.9-.1.9v.9l-.3.8v.9l-.2.8-.1.9v.9l-.3.8-.1.9-.1.9v.9l-.1.9-.3.8-.2.8-.1.9v.9l-.1.9-.2.8.1.9-.3.8-.1.8.7.1.9-.1.7.1.8.1h.7l.2-.8.2-.8v-.8l.1-.8.1-.8.3-.8.1-.8-.1-.8.3-.8-.1-.8.3-.8v-.8l.3-.7-.1-.8.2-.7.1-.8.7.1.7-.1.7.2h.8l.8-.1.8.1h.1v.7c.1-.1.3-.2.3-.3.9.9 1.9 1.3 3 1.1v1c-.3.2-.8.2-.8.6-.4-.5-1.2-.6-2-.9v.2l.2.8.1.8.2.8v.8l.1.8.3.8.2.8v.8l.2.8.2.8v.9l.2.8.2.7h.7l.8-.1.7-.3.7-.2.8-.1-.2-.8-.4-.5zm-9.6-12.8c.2-.6 1-.6 1.6-.7-.1.6-.9.5-1.6.7zm2.4-2.2l-.9.1-.8-.2-.7.1v-.9l.3-.8.1-.9.1-.8v-.8l.1-.8.1-.8.3-.8v-.8l.2-.8.1-.8.6-.1.2.8.1.8.1.8.1 1.1v.8l.3.8.1.8.2.8v.8l.3.8.1.8h-1zM318.1 27.5l.2-.4c-.1-.8.1-1.9.5-2v1.1l.1-.2v-1.8l-.1-.6c-.1.2-.3.3-.6.3 0-.6-.1-1.3.3-1.6.2.1.3.3.3.6v-.3l-.1-.9-.1-.9V19l.2-.9-.1-.9v-.9l.2-.9v-.9l-.1-.9.1-.9-.1-.9.1-.9-.1-.9v-.9l.1-.9-.1-.9-.1-.9V5c-.4.3-.6.9-1.4.9.1-.7.7-.7.9-1.4.2 0 .2.2.4.2 0 .2.1.2.2.2V1.1h-.8l-1 .9h-.9v.9l.1.9-.2.8v.9l.1.9v.9l-.1.9v.9l.1.9v.9l-.1.9.1.9.1.9-.2.9v.9l.1.9.1.9-.1.9.1.9v1.8l-.2.9.1.9v.9l.1.9v.9l-.2-.3.1.9-.7.6-.6.7-.6.7H309.9l-.7.1h-.8l-.7-.7-.6-.7-.6-.7v-5.4l-.1-.9v-2.7l.1-.9-.1-.9-.1-.9.1-.9.2-.9-.1-.9.1-.9-.1-.9.1-.9-.2-.9V7l.1-.9V4.3l-.2-.8V1.8l.1-.9-.9.2-.9.9h-.8v.8l-.2.8.1.9-.2.9.1.9V9l.1.9v.9l-.2.9.1.9v.9l.1.9v.9l-.1.9v.9l.1.9-.2.9v1.8l.1.9v.9l-.2.9v.9l.1.9-.2.9v.9l.5.8.3.8.4.8.3.9.8.4.8.4.8.4.8.3.7-.1.7.1.7-.1h1.4l.7.2h1.5l.8-.4.8-.3.8-.3.8-.4.3-.8.9-2.2zm.6-15.9c-.2.3-.2.7-.4 1-.3-.3-.3-.7-.3-1.2.4-.1.5.2.7.2zm-1.2-9.4c-.4 1.3.2 1.1.3 2.2-.6-.2-1.8-2.3-.3-2.2z"/><g fill="#FFF"><path d="M337.7 28l-.2-.8-.1-.9-.4-.8-.2-.8-.4-.8-.1-.9-.4-.8-.3-.8-.1-.9-.1-.3c0 .3 0 .6.1.9-.5-.1-.4-.8-.4-1.4l-.2-.8-.3-.8-.2-.9-.3-.9-.3-.9-.2-.9.7-.3h.2c-.2-.6-.4-1.3-.5-2l-.5.1-.8.1-.8-.1h-.8l-.8-.1h-.8l-.1-.3c-.3-.2-.3-.8-.4-1.3h.2l.1-.8-.1-.8v-.2.2c-.6.3-.9-1.2-.2-1-.1.3.1.4.2.6v-.4l.2-.8v-.8l-.1-.8.1-.8.1-.8-.1-.8v-.9h.9l.8-.1h.8l.7.1c-.3-.8-.5-1.7-.6-2.5h-1.2l-.9.1h-.9l-1-.1-.6.7-.3.1-.1.2-.3.3.1.8-.1.8-.1.8.1.8V6l.1.8v.8l-.1.8.1.8-.1.8-.1.8v.8l-.1.8.2.8v.8l.3.4.1.9-.1.9v.9l.1.8-.1.8v.8l.1.8.1.8-.1.8v1.6l-.1.8.1.8v.8l.1.8v.8l-.2.8.2.8v.8H328.5l.7.1-.1-.8.1-.8.1-.8-.2-.8.1-.8v-.8l.1-.8-.2-.8.1-.8-.1-.8.2-.8-.1-.8v-.8l-.1-.8.1-.8.1-.8V15.5h.8l.9-.1.1.9.3.8.1.3c.3-.3.8-.3 1-.2 0 .6-.3.8-.8.9l.1.7v-.4c.4-.1.5.2.8.2 0 .5-.3.5-.6.5l.2.4.3.8.3.8.2.8.2.8.4.8.1.9.3.8.4.8.1.9.4.8.1.3.3.8.2.8.3.7.3-.1v-.7c.2 0 .3.3.4.6h.1l.8-.3.8-.3-.1-.8-.4-.7zm-7.6-13.6c-.6 0-.6-.6-.5-1.2.3.2.6.5.5 1.2zm5.7 12.3c.7.1.1 1.9.7 2.6-1-.5-.5-2-.7-2.6z"/><path d="M339.4 7.5v-.8l-.1-.8v-.8l-.3-.6-.3-.7V3l-.6-.5-.4-.6-.7-.5-.5-.6h-.8l-.7-.3-.8-.1-.7-.3-.9.1h-.2c.1.8.3 1.7.3 2.5l.8-.1.8.4.7.4.8.3.2.8.5.7.3.8-.1.8.2.8-.1.8-.1.8-.3.8-.4.7-.2.8-.8.2-.6.4c.1.6 0 1.4.1 2.2l.4-.1h.8l.7-.3.5-.5.6-.5.6-.5.5-.5.2-.7.2-.7.3-.7.1-.7-.1-.8.1-.8z"/></g><path fill="#FFF" d="M357.9 30.1l-.1-.7-.1-.8-.1-.8-.2-.8-.2-.8-.1-.8-.1-.8-.1-.8-.2-.8-.1-.8v-.8l-.3-.8v-.8l-.3-.7.1-.8-.3-.7-.1-.8-.1-.8-.3-.7-.1-.8v-.8l-.2-.8v-.8l-.3-.8-.1-.8-.1-.8-.1-.8-.3-.7-.1-.4V7l-.3-.7-.1-.8-.3-.7V4l-.1-.8-.1-.8-.7-.5-.7-.5-.6-.6-.7.1-.8-.2h-1.8c.1.7.1 1.3.1 2-.2-.6-.4-1.2-.5-1.9h-.1l-.7.5-.6.6-.6.5v.9l-.1.9.1.8-.2.8-.2.8-.1.9-.1.9v.9l-.3.8v.2c.7.1.6.8.7 1.4-.5 0-.6-.4-.7-.9v.2l-.3.8-.1.9-.1.9-.1.9-.1.9-.2.8-.2.8v.9l-.2.8-.1.9v.9l-.1.9-.2.8-.1.9-.1.9-.3.8v.9l-.1.9v.9l-.3.8v.9l-.2.8.7.2h.8l.7.3.8-.1.8.2.2-.8.1-.8.1-.8v-.8l.1-.8.3-.8.2-.8.1-.8.2-.8v-.8l.1-.8V21l.2-.7v-.8l.3-.7v-.3h-.1v-.8c.4-.1.5.2.8.2h.3l.9.1h.9l.9-.1.9.1.2.8.2.8v.8l.3.8v.8l.2.8.2.8-.1.8.2.8.2.8.2.8.1.8v.8l.1.8.2.8.3.8.7-.1h.8l.7-.3h.8l.6-.3zm-13-17.4c.4.2.7.5.5 1.2-.5 0-.5-.6-.5-1.2zm.4 2c.3.2.7.4.6 1h-.6c-.1-.3-.1-.7 0-1zm.3 1.6c.3.2.4.6.4 1.2-.6 0-.7-.9-.4-1.2zm.3 2.6c.5.2.5.9.5 1.6-.6-.1-.8-1.2-.5-1.6zm.7-1.8c-.2-.9.9-1.2 1.2-1 0 .9-.6 1-1.2 1zm3.8-.2c-.7-.1-.3-1.2-.3-1.8.6.1.2 1.1.3 1.8zm-.3-3.3c-.1.2 0 .5 0 .7-.1-.2-.2-.4-.2-.6l-.5.1-.7-.1h-.7l.1-.8.1-.9.2-.8v-.8l.2-.8-.1-.8.3-.8v-.8l.1-.8.2-.8v-.9h.7v.9l.3.8.1.8.3.8.1.8.1.8.1.8.3.8-.1.8v.8l.2.8h-1.1zM375.1 26.6l-.9.1-.8-.1-.8.1-.8-.1-.8.2h-.8l-.8-.1h-1.6l-.9.1V25.1l.1-.8-.2-.8.1-.8v-1.6l.2-.8-.2-.8.1-.8-.1-.8V15.5l-.1-.8v-.8l.2-.8-.1-.8.1-.8-.1-.8.1-.8.1-.8v-.8l-.1-1.1.2-.8V4.8l-.2-.9v-.8l.2-.8v-.8l-.1-.8-.8-.1h-.8l-.8.1-.8-.1h-.8l-.1.9V5l.1.9-.1.8.1.9v.9l.1.9-.1.9V11.6c.6.3.7 1 1.4 1.2-.3.5-1.1.5-.9 1.6-.2-.2-.4-.4-.5-.6v2.5l.1.9v3.6l.1.9-.1.9v2.7l.1.9-.2.9.1.9v.8l.6.6.7.5.8.5.8.1H368.5l.8-.2.8.1h.8l.8-.1.8.1.8-.1.8.1h.9v-.8l-.1-.8.1-.8.1-1.4zm-10.4-1.2c-1.2-3.1-1.1-6.7-1.6-10.6 1.3 1 .9 1.9.8 3.8 0 2.2 1 4.5.8 6.8zM226.1 30.9l-.1-.8.1-.8-.1-.8v-.8l-.7.1H223.2l-.7-.2h-.8l-.8.1-.8-.2h-.8l-.8.2-.8-.1h-.8l.1-.8V24.4l-.1-.8-.1-.8.1-.8-.1-.8v-.8l-.1-.8.1-.8V18l.1-.8v-.7c-.3-.2-.6-.5-.8-.8.3-.3.6-.1.8.2v-2.8l-.1-.8V8.7c-1.1.1-1.2-1.6-2-2.2.4-.3.8-.6 1.6-.5-.1.8.2 1.2.5 1.6v-.1l-.1-.8.2-.9V4.2l.2-.8-.2-.9v-.8l-.7-.1H214v2.5l.1.8-.1.8V8.1l.1.8-.1.8V11c.4.1.5.4.5.8h-.4v.3l-.1.8.1.8-.1.8.1.8v.8l-.1.8.2.8-.1.8.1.8-.2.7.1.8v1.6l.1.8v.8l-.1.8.1.8-.1.8.1.8-.1.8v1.6l.1.8.7.6.6.8.9-.1.9.1.9-.2.9.1h2.7c.1-.3.2-.7.3-.8.1.2.2.5.2.8h2.2l.9.2.9-.1-.2-.9zm-10.4-19.8c-.5 0-.6-.3-.6-.8.6-.1.7.2.6.8zm1.8 19.4c-.3-.5-.6-1.1-.7-1.8.6.5 1.8.5 1.7 1.7-.5-.2-.5.2-1 .1z"/></svg>